<svg width="72" height="72" viewBox="0 0 72 72" fill="none" xmlns="http://www.w3.org/2000/svg">
<path d="M64.8 18H62.28C63.1044 16.3188 63.5364 14.472 63.5436 12.6C63.5436 9.25827 62.2161 6.05341 59.8531 3.69045C57.4902 1.3275 54.2853 0 50.9436 0C44.7624 0 39.3696 4.32 35.352 8.9316C30.24 3.0312 25.0164 0 19.8 0C16.4583 0 13.2534 1.3275 10.8905 3.69045C8.5275 6.05341 7.2 9.25827 7.2 12.6C7.2108 14.472 7.6428 16.3188 8.4636 18H7.2C5.29044 18 3.45909 18.7586 2.10883 20.1088C0.758569 21.4591 0 23.2904 0 25.2V32.4C0 33.3548 0.379284 34.2705 1.05442 34.9456C1.72955 35.6207 2.64522 36 3.6 36H68.4C69.3548 36 70.2705 35.6207 70.9456 34.9456C71.6207 34.2705 72 33.3548 72 32.4V25.2C72 23.2904 71.2414 21.4591 69.8912 20.1088C68.5409 18.7586 66.7096 18 64.8 18ZM29.0088 18H19.8C18.3678 18 16.9943 17.4311 15.9816 16.4184C14.9689 15.4057 14.4 14.0322 14.4 12.6C14.4 11.1678 14.9689 9.79432 15.9816 8.78162C16.9943 7.76893 18.3678 7.2 19.8 7.2C23.04 7.2 27 9.9144 30.9312 14.8392C30.1428 16.0524 29.52 17.1252 29.0088 18ZM50.9688 18H37.4976C40.8564 13.0752 46.0332 7.2 50.958 7.2C52.3902 7.2 53.7637 7.76893 54.7764 8.78162C55.7891 9.79432 56.358 11.1678 56.358 12.6C56.358 14.0322 55.7891 15.4057 54.7764 16.4184C53.7637 17.4311 52.3902 18 50.958 18H50.9688ZM39.6 43.2H32.4V72H39.6V43.2ZM25.2 43.2H7.2V64.8C7.2 66.7096 7.95857 68.5409 9.30883 69.8912C10.6591 71.2414 12.4904 72 14.4 72H25.2V43.2ZM46.8 43.2V72H57.6C59.5096 72 61.3409 71.2414 62.6912 69.8912C64.0414 68.5409 64.8 66.7096 64.8 64.8V43.2H46.8Z" fill="#00993D"/>
</svg>
