<svg width="35" height="35" viewBox="0 0 35 35" fill="none" xmlns="http://www.w3.org/2000/svg">
<path d="M18.5164 11.222L18.5156 11.222C18.4462 11.222 18.3795 11.2496 18.3304 11.2987C18.2812 11.3479 18.2536 11.4145 18.2536 11.484C18.2536 11.5535 18.2812 11.6201 18.3304 11.6693C18.3794 11.7183 18.4459 11.7459 18.5152 11.746C18.5153 11.746 18.5155 11.746 18.5156 11.746V12.246C19.0909 12.2449 19.6606 12.3575 20.1923 12.5771C20.7239 12.7968 21.207 13.1192 21.6137 13.5259C22.0205 13.9327 22.3429 14.4157 22.5625 14.9474C22.7822 15.479 22.8947 16.0488 22.8936 16.624L23.3936 16.6249C23.3936 16.6233 23.3937 16.6218 23.3937 16.6202L18.5164 11.222ZM18.5164 11.222C19.226 11.2209 19.9289 11.3599 20.5847 11.6309C21.2405 11.902 21.8363 12.2998 22.3381 12.8016C22.8398 13.3033 23.2377 13.8992 23.5087 14.555C23.7798 15.2108 23.9187 15.9136 23.9176 16.6232V16.624C23.9176 16.6584 23.9109 16.6925 23.8977 16.7243C23.8845 16.756 23.8652 16.7849 23.8409 16.8093C23.8166 16.8336 23.7877 16.8529 23.7559 16.8661C23.7251 16.8788 23.6921 16.8856 23.6588 16.886L18.5164 11.222ZM26.1016 25.3895L26.0806 25.4066L26.0616 25.4259C25.6197 25.874 25.0932 26.2299 24.5126 26.4728C23.932 26.7157 23.309 26.8409 22.6796 26.841C22.6796 26.841 22.6796 26.841 22.6796 26.841H22.3683C20.9793 26.7645 19.6194 26.4121 18.3681 25.8043L18.2647 25.754H18.2501C18.2482 25.7531 18.2462 25.7522 18.2443 25.7513C17.9706 25.6243 17.7122 25.5044 17.4613 25.3621L17.4596 25.3611C15.965 24.5213 14.5935 23.4792 13.384 22.2642L13.3781 22.2583L13.3719 22.2525C11.8064 20.7822 10.5216 19.0392 9.58041 17.1086C9.08854 16.0675 8.76028 14.9568 8.60721 13.8155L8.60541 13.8021L8.60289 13.7889C8.38678 12.6489 8.51283 11.4706 8.96476 10.4025C9.25474 9.92556 9.6066 9.48904 10.0112 9.10435L10.0271 9.08923L10.0416 9.07277C10.1962 8.89748 10.3855 8.75609 10.5974 8.65749C10.7993 8.5636 11.0175 8.51045 11.2397 8.50096C11.4911 8.53349 11.7342 8.61331 11.9562 8.73631C12.188 8.86481 12.3922 9.03791 12.5568 9.24563L12.5682 9.25996L12.5806 9.27343C12.8179 9.53146 13.0791 9.79256 13.333 10.0439C13.3704 10.081 13.4076 10.1177 13.4445 10.1543C13.6614 10.3687 13.8699 10.5749 14.0606 10.7739L14.0657 10.7792L14.0709 10.7844L14.7009 11.4044L14.7102 11.4135L14.72 11.4222C14.9882 11.66 15.1565 11.9905 15.1915 12.3486C15.1865 12.6711 15.0654 12.9821 14.8498 13.225L14.8436 13.232L14.8377 13.2391C14.6532 13.4631 14.4576 13.6777 14.2516 13.882L14.2515 13.8818L14.2417 13.892L14.0479 14.0954C13.878 14.2572 13.7487 14.4551 13.6678 14.6731L13.6677 14.6731L13.6633 14.686C13.5918 14.8962 13.5635 15.1169 13.5777 15.3362L13.5824 15.4098L13.6083 15.479C13.79 15.9654 14.0727 16.4084 14.4361 16.7784C14.7935 17.261 15.1543 17.7061 15.5103 18.1451C15.6615 18.3316 15.8118 18.5169 15.9606 18.7036L15.9666 18.7111L15.9728 18.7183C16.9409 19.8421 18.0887 20.7974 19.3696 21.5452C19.5533 21.6745 19.7627 21.7611 19.9838 21.7996L20.008 21.8038L20.0324 21.8056C20.2403 21.8211 20.4522 21.7903 20.6501 21.7117L20.686 21.6975L20.7193 21.6779C21.1241 21.4396 21.483 21.1341 21.7834 20.7746L21.7834 20.7746L21.7867 20.7705C22.0531 20.4448 22.4322 20.2316 22.8481 20.1728C23.2401 20.1869 23.6123 20.351 23.8874 20.6319L23.9037 20.6485L23.9214 20.6635C24.1 20.8148 24.3032 21.0272 24.5231 21.2574L24.5254 21.2598L24.8294 21.5738L24.835 21.5796L24.8408 21.5852L25.1514 21.8859L25.6862 22.4296L25.698 22.4417L25.7107 22.4529C26.0099 22.7185 26.2913 23.0021 26.5533 23.3036C26.7491 23.5827 26.8395 23.924 26.8075 24.2628C26.7026 24.7055 26.4546 25.1016 26.1016 25.3895Z" fill="white" stroke="white"/>
<circle cx="17.5" cy="17.5" r="16.5" stroke="white" stroke-width="2"/>
</svg>
