<svg width="71" height="72" viewBox="0 0 71 72" fill="none" xmlns="http://www.w3.org/2000/svg">
<path d="M36.054 39.8212V36.3831C36.054 35.6271 35.4561 35.012 34.7211 35.012H14.0625V41.1922H34.7211C35.4559 41.1922 36.054 40.5772 36.054 39.8212Z" fill="#00993D"/>
<path d="M31.6795 33.8325C37.6549 24.3566 40.9441 17.1901 40.9441 13.6373C40.9441 6.49527 35.2951 0.684814 28.3515 0.684814C21.4078 0.684814 15.7588 6.49527 15.7588 13.6373C15.7588 17.1904 19.0481 24.3569 25.0235 33.8325H31.6795ZM20.266 13.6373C20.266 9.04419 23.886 5.32084 28.3515 5.32084C32.817 5.32084 36.4369 9.04419 36.4369 13.6373C36.4369 18.2304 32.817 21.9537 28.3515 21.9537C23.886 21.9537 20.266 18.2302 20.266 13.6373Z" fill="#00993D"/>
<path d="M58.3682 25.6985V32.6904L59.0281 32.4486C60.3581 31.961 61.2518 30.6578 61.2518 29.2055C61.2518 27.7939 60.3917 26.5033 59.1115 25.9942L58.3682 25.6985Z" fill="#00993D"/>
<path d="M46.4817 29.86C46.4817 31.2174 47.5552 32.3217 48.8749 32.3217C50.1946 32.3217 51.2681 31.2175 51.2681 29.86C51.2681 28.5028 50.1946 27.3984 48.8749 27.3984C47.5552 27.3984 46.4817 28.5028 46.4817 29.86Z" fill="#00993D"/>
<path d="M12.9152 41.7826V28.8458C12.9152 27.9394 12.1984 27.2021 11.3173 27.2021H2.26445C1.38329 27.2021 0.666504 27.9394 0.666504 28.8458V41.7826C0.666504 42.6889 1.38329 43.4262 2.26445 43.4262H11.3173C12.1984 43.4262 12.9152 42.6889 12.9152 41.7826Z" fill="#00993D"/>
<path d="M46.5344 20.8467C47.6309 20.8467 49.9525 19.5578 49.9525 18.1222C49.9525 16.6866 47.6307 15.3977 46.5344 15.3977C45.4864 15.3977 44.6338 16.6199 44.6338 18.1222C44.6338 19.6245 45.4864 20.8467 46.5344 20.8467Z" fill="#00993D"/>
<path d="M58.5198 56.8612C61.6312 55.1859 65.2086 55.5992 66.9595 55.959C66.5177 54.895 65.6355 53.2478 64.1839 52.4644C61.9321 51.2489 59.7653 51.9158 59.7438 51.9229C59.5843 51.9738 59.4113 51.9505 59.2698 51.8593C59.1284 51.7683 59.0324 51.6184 59.0071 51.4487C58.9944 51.3642 57.7351 42.9661 57.0377 41.0617C56.3871 39.2849 55.0338 38.2894 55.0204 38.2795C54.8679 38.169 54.7756 37.988 54.7756 37.7962V35.9606C54.7756 34.7915 55.495 33.7425 56.5657 33.3502L57.2196 33.1106V25.2418L52.5078 23.3681C51.8055 23.089 51.0466 23.18 50.4255 23.6178C49.8044 24.0557 49.4482 24.751 49.4482 25.5255V26.2664C51.1286 26.5494 52.4152 28.0526 52.4152 29.8598C52.4152 31.667 51.1286 33.1703 49.4482 33.4533V39.2837C49.4482 39.9259 49.3637 40.5654 49.1972 41.184L48.4102 44.1072C48.2712 44.6236 48.2008 45.157 48.2008 45.6927V58.3349C48.2008 60.1007 46.8043 61.5371 45.0875 61.5371H40.3502C39.678 61.5371 39.0102 61.3062 38.4692 60.8869C36.9419 59.7024 34.3796 57.1733 34.3796 53.5426C34.3796 51.9082 34.9143 49.8287 35.9689 47.362C36.441 46.2579 36.3401 44.9957 35.6994 43.9858C35.0586 42.976 33.976 42.3732 32.8035 42.3732H14.001C13.7363 43.6478 12.6338 44.6069 11.3169 44.6069H9.2566C7.09363 46.0055 5.28955 49.9447 5.28955 53.3228V60.656C5.28955 61.5598 6.00432 62.295 6.88305 62.295H11.8116C12.4866 61.1495 13.7102 60.3823 15.1049 60.3823H23.5942C24.4773 60.3823 25.2912 60.6905 25.9413 61.2069C27.5109 60.0785 28.4374 58.2617 28.4374 56.2739C28.4374 52.9538 25.8114 50.2527 22.5837 50.2527H10.6179C10.301 50.2527 10.0441 49.9885 10.0441 49.6626C10.0441 49.3367 10.301 49.0724 10.6179 49.0724H22.5837C26.4443 49.0724 29.585 52.303 29.585 56.2739C29.585 58.5906 28.5311 60.7103 26.7407 62.0658C27.182 62.7098 27.4424 63.4941 27.4424 64.3404C27.4424 64.9514 27.307 65.5303 27.0656 66.0474H54.0468C54.1772 64.2491 54.8702 58.8266 58.5198 56.8612Z" fill="#00993D"/>
<path d="M59.0527 57.9075C58.9012 57.9891 58.7563 58.0791 58.6165 58.1756L61.7227 64.31C61.9108 64.6814 62.2806 64.912 62.6879 64.912C62.8619 64.912 63.0353 64.8683 63.1893 64.7857C63.4475 64.6475 63.6375 64.4144 63.7249 64.1292C63.8121 63.8443 63.7863 63.5415 63.6521 63.2765L60.6096 57.2681C60.082 57.4271 59.5583 57.6353 59.0527 57.9075Z" fill="#00993D"/>
<path d="M67.5971 57.3263C67.0755 57.1793 64.4987 56.5223 61.7659 56.9964L62.4848 58.4163C62.5524 58.4137 62.6198 58.4103 62.6872 58.4103C65.573 58.4103 67.9207 60.8251 67.9207 63.7931C67.9207 66.7614 65.573 69.1762 62.6872 69.1762C59.8014 69.1762 57.4537 66.7614 57.4537 63.7931C57.4537 62.6124 57.8302 61.4725 58.5192 60.5394L57.7205 58.9621C55.4933 61.398 55.2021 65.8122 55.1689 66.5452C56.2988 69.8122 59.3064 72.0004 62.6873 72.0004C67.087 72.0004 70.6665 68.3187 70.6665 63.7931C70.6665 61.2442 69.5481 58.8943 67.5971 57.3263Z" fill="#00993D"/>
<path d="M23.595 61.5623H15.1056C13.6165 61.5623 12.405 62.8084 12.405 64.34C12.405 65.8718 13.6165 67.1179 15.1056 67.1179H23.595C25.0841 67.1179 26.2956 65.8718 26.2956 64.34C26.2956 62.8084 25.0841 61.5623 23.595 61.5623Z" fill="#00993D"/>
<path d="M11.2572 64.3404C11.2572 64.0432 11.2902 63.7539 11.3509 63.4753H7.80511C7.80124 63.5811 7.79736 63.6871 7.79736 63.7927C7.79736 68.3182 11.3768 72 15.7765 72C18.5033 72 20.9812 70.6033 22.4473 68.2986H15.1053C12.9835 68.2986 11.2572 66.5229 11.2572 64.3404Z" fill="#00993D"/>
<path d="M61.4561 15.9551V21.0495C61.4561 21.6847 61.9584 22.2014 62.5761 22.2014C63.1936 22.2014 63.6959 21.6847 63.6959 21.0495V15.9551C63.3293 16.0058 62.9559 16.0345 62.5761 16.0345C62.1961 16.0345 61.8227 16.0058 61.4561 15.9551Z" fill="#00993D"/>
<path d="M62.5759 14.8543C66.5574 14.8543 69.7966 11.5225 69.7966 7.42721C69.7966 3.33177 66.5574 0 62.5759 0C58.5943 0 55.355 3.33177 55.355 7.42721C55.355 11.5225 58.5942 14.8543 62.5759 14.8543ZM64.3881 10.7163C65.537 10.0449 66.2507 8.78458 66.2507 7.42721C66.2507 6.41759 65.8685 5.46846 65.1743 4.75436C64.9503 4.5239 64.9503 4.15018 65.1743 3.91987C65.3985 3.68926 65.7617 3.68941 65.9858 3.91987C66.8967 4.8569 67.3983 6.10244 67.3983 7.42721C67.3983 9.20832 66.462 10.8618 64.9549 11.7425C64.8654 11.7947 64.7681 11.8196 64.672 11.8196C64.4722 11.8196 64.2783 11.7121 64.1725 11.5209C64.016 11.2375 64.1126 10.8773 64.3881 10.7163Z" fill="#00993D"/>
<path d="M4.04274 14.3669V19.6761C4.04274 20.002 4.29965 20.2663 4.61651 20.2663C4.93338 20.2663 5.19028 20.002 5.19028 19.6761V14.3669C6.67921 14.0879 7.81198 12.7449 7.81198 11.1339C7.81198 9.32154 6.37842 7.84717 4.61651 7.84717C2.85446 7.84717 1.4209 9.32154 1.4209 11.1339C1.4209 12.7449 2.55366 14.088 4.04274 14.3669Z" fill="#00993D"/>
<path d="M49.3228 20.8468V22.3167C49.3228 22.6426 49.5797 22.9069 49.8965 22.9069C50.2134 22.9069 50.4703 22.6426 50.4703 22.3167V20.8468C50.4703 20.5208 50.2134 20.2566 49.8965 20.2566C49.5797 20.2566 49.3228 20.5208 49.3228 20.8468Z" fill="#00993D"/>
</svg>
