<svg width="69" height="72" viewBox="0 0 69 72" fill="none" xmlns="http://www.w3.org/2000/svg">
<path fill-rule="evenodd" clip-rule="evenodd" d="M15.0618 2.5248C15.4027 1.60875 16.0698 0.856226 16.9308 0.416308C17.7919 -0.023611 18.7842 -0.118834 19.711 0.149503L38.1697 5.49393C39.0976 5.76287 39.8921 6.37659 40.3954 7.21323C40.8987 8.04987 41.074 9.04825 40.8864 10.0101L35.5247 37.6386C34.8002 41.3678 32.7964 44.7144 29.8702 47.0821C26.9441 49.4499 23.2857 50.685 19.547 50.5674L16.1024 62.845L19.8956 63.9441C20.8765 64.228 21.7062 64.8962 22.2022 65.8018C22.6982 66.7073 22.82 67.776 22.5406 68.7728C22.2612 69.7696 21.6036 70.6127 20.7125 71.1168C19.8214 71.6209 18.7697 71.7445 17.7888 71.4606L10.4741 69.3354C10.3529 69.3066 10.2331 69.2718 10.1152 69.2312L2.79024 67.1111C1.80936 66.8265 0.979916 66.1576 0.484363 65.2516C-0.0111895 64.3455 -0.132255 63.2765 0.1478 62.2798C0.427855 61.283 1.08609 60.4401 1.9777 59.9366C2.86931 59.433 3.92126 59.31 4.90213 59.5946L8.7056 60.6989L12.1502 48.4213C8.9128 46.5182 6.44532 43.509 5.1874 39.9298C3.92948 36.3505 3.96281 32.4337 5.28146 28.8771L15.0618 2.5248ZM17.5274 18.0164L30.7216 22.0064L32.6592 12.0208L21.0079 8.64537L17.5274 18.0164ZM49.8876 50.9424C45.7855 50.9424 41.8443 49.3209 38.8975 46.421C40.305 44.1125 41.2897 41.5642 41.804 38.8992L45.3819 20.4646L52.9632 18.6258L49.7287 8.99438L47.3605 9.59862C47.4493 6.88101 46.4891 4.23581 44.6848 2.22789L51.287 0.545386C52.2228 0.305837 53.213 0.432665 54.061 0.900687C54.909 1.36871 55.5528 2.14369 55.8645 3.07175L64.8144 29.7262C66.0211 33.3223 65.9328 37.2369 64.5651 40.7729C63.1974 44.309 60.6392 47.2371 57.3459 49.0359L60.401 61.4177L64.2198 60.4436C65.2088 60.1915 66.2559 60.3489 67.1307 60.8813C68.0055 61.4137 68.6363 62.2775 68.8844 63.2825C69.1325 64.2876 68.9776 65.3516 68.4537 66.2406C67.9298 67.1295 67.0798 67.7706 66.0908 68.0227L58.694 69.9084C58.5944 69.9388 58.4935 69.9648 58.3916 69.9865L50.9641 71.8826C49.975 72.1347 48.928 71.9772 48.0532 71.4448C47.1784 70.9124 46.5475 70.0487 46.2994 69.0437C46.0513 68.0386 46.2063 66.9746 46.7302 66.0856C47.2541 65.1967 48.1041 64.5556 49.0931 64.3035L52.9427 63.319L49.8876 50.9424Z" fill="#00993D"/>
</svg>
