<svg width="72" height="72" viewBox="0 0 72 72" fill="none" xmlns="http://www.w3.org/2000/svg">
<path d="M48.0122 0C48.9217 0 49.794 0.36125 50.4372 1.00428C51.0803 1.64731 51.4416 2.51945 51.4416 3.42883V6.85422L68.5888 6.85765V27.4306L61.6613 27.4272L71.1506 53.4725C71.7938 55.214 72.0767 57.0679 71.9822 58.9219C71.8877 60.776 71.4177 62.5915 70.6007 64.2585C69.7837 65.9256 68.6368 67.4095 67.2293 68.6203C65.8218 69.8311 64.1832 70.7436 62.4126 71.3026C60.642 71.8615 58.7763 72.0553 56.9287 71.8721C55.081 71.6889 53.2897 71.1326 51.6634 70.2369C50.0371 69.3412 48.6095 68.1247 47.4673 66.6611C46.3251 65.1975 45.4919 63.5173 45.0183 61.7223H30.4329C29.6524 64.7315 27.8731 67.3865 25.3864 69.2526C22.8996 71.1187 19.8528 72.0853 16.7449 71.9941C13.637 71.9029 10.6521 70.7592 8.27917 68.7505C5.90621 66.7417 4.28577 63.9869 3.68322 60.9371C2.57238 60.3578 1.64166 59.4851 0.992276 58.4138C0.342888 57.3426 -0.000310511 56.1139 2.10801e-07 54.8612V37.7171H30.865C30.8651 38.5569 31.1735 39.3675 31.7316 39.9951C32.2898 40.6227 33.059 41.0237 33.8932 41.1219L34.2944 41.1459H41.1533C41.9933 41.1458 42.804 40.8375 43.4317 40.2794C44.0594 39.7213 44.4604 38.9523 44.5587 38.1183L44.5827 37.7171V6.85765H34.2944V0H48.0122ZM17.1472 51.4324C15.3281 51.4324 13.5835 52.1549 12.2972 53.441C11.011 54.727 10.2883 56.4713 10.2883 58.2901C10.2883 60.1088 11.011 61.8531 12.2972 63.1391C13.5835 64.4252 15.3281 65.1477 17.1472 65.1477C18.9663 65.1477 20.7109 64.4252 21.9972 63.1391C23.2835 61.8531 24.0061 60.1088 24.0061 58.2901C24.0061 56.4713 23.2835 54.727 21.9972 53.441C20.7109 52.1549 18.9663 51.4324 17.1472 51.4324ZM58.3005 51.4324C56.4814 51.4324 54.7368 52.1549 53.4505 53.441C52.1642 54.727 51.4416 56.4713 51.4416 58.2901C51.4416 60.1088 52.1642 61.8531 53.4505 63.1391C54.7368 64.4252 56.4814 65.1477 58.3005 65.1477C60.1196 65.1477 61.8642 64.4252 63.1505 63.1391C64.4367 61.8531 65.1594 60.1088 65.1594 58.2901C65.1594 56.4713 64.4367 54.727 63.1505 53.441C61.8642 52.1549 60.1196 51.4324 58.3005 51.4324ZM27.4355 6.85765C28.3451 6.85765 29.2174 7.2189 29.8605 7.86193C30.5037 8.50496 30.865 9.3771 30.865 10.2865V34.2883H2.10801e-07V10.2865C2.10801e-07 9.3771 0.361315 8.50496 1.00446 7.86193C1.6476 7.2189 2.5199 6.85765 3.42944 6.85765H27.4355ZM61.7299 13.7153H51.4416V20.573H61.7299V13.7153ZM24.0061 13.7153H6.85888V17.1441H24.0061V13.7153Z" fill="#00993D"/>
</svg>
